# xmcd CD database file
# Copyright (C) 1993-1996 Ti Kan
#
# Track frame offsets:
# 225
# 13387
# 23775
# 34922
# 44600
# 53087
# 64000
# 74625
# 86722
# 95137
#
# Disc length: 1418 seconds
# Revision: 0
# Processed by: cddbd v1.4b41PL1 Copyright (c) Steve Scherf et al.
# Submitted via: CDSpectrumPro v3.2.327
#
DISCID=9205870a
DTITLE=Jerry Lee Lewis - Rockin' With Jerry Lee Lewis
DYEAR=1900
DGENRE=
TTITLE0=Whole Lotta Shakin' Goin' On
TTITLE1=Good Golly Miss Molly
TTITLE2=Be Bop A Lula
TTITLE3=Singing The Blues
TTITLE4=Great Balls Of Fire
TTITLE5=Little Queenie
TTITLE6=Hello Josephine
TTITLE7=Johnny B. Goode
TTITLE8=Save The Last Dance For Me
TTITLE9=Sweet Little Sixteen
EXTD=
EXTT0=
EXTT1=
EXTT2=
EXTT3=
EXTT4=
EXTT5=
EXTT6=
EXTT7=
EXTT8=
EXTT9=
PLAYORDER=
